<?xml version='1.0' encoding='iso-8859-1'?>
<!DOCTYPE svg PUBLIC '-//W3C//DTD SVG 1.1//EN' 'http://www.w3.org/Graphics/SVG/1.1/DTD/svg11.dtd'>
<svg version="1.1" xmlns="http://www.w3.org/2000/svg" viewBox="0 0 315 315" xmlns:xlink="http://www.w3.org/1999/xlink" enable-background="new 0 0 315 315">
  <g>
    <path d="M93.032,132.257c0.428,3.513,3.409,6.153,6.948,6.153h115.037c3.539,0,6.521-2.641,6.948-6.153l11.985-98.394   c0.243-1.989-0.379-3.987-1.708-5.487c-1.328-1.5-3.236-2.359-5.24-2.359H188.92C186.114,11.224,173.097,0,157.5,0   s-28.614,11.224-31.42,26.017H87.997c-2.004,0-3.912,0.858-5.24,2.359c-1.329,1.5-1.951,3.498-1.708,5.487L93.032,132.257z    M157.5,14c7.823,0,14.477,5.029,16.947,12.017h-33.895C143.023,19.029,149.677,14,157.5,14z M219.099,40.017l-10.28,84.394H106.18   L95.901,40.017H219.099z"/>
    <path d="m241.346,153.696h-167.692c-3.866,0-7,3.134-7,7 0,3.866 3.134,7 7,7h6.728c1.693,26.698 16.998,49.745 39.04,62.28l-11.486,76.99c-0.3,2.015 0.292,4.061 1.621,5.604 1.33,1.543 3.266,2.43 5.303,2.43h89.549c2.037,0 3.973-0.887 5.303-2.43 1.329-1.543 1.921-3.589 1.621-5.604l-11.842-79.371c19.926-12.948 33.535-34.811 35.127-59.899h6.729c3.866,0 7-3.134 7-7-0.001-3.866-3.135-7-7.001-7zm-45.06,147.304h-73.305l9.707-65.061c7.794,2.649 16.133,4.108 24.811,4.108 10.199,0 19.934-2.004 28.855-5.609l9.932,66.562zm-38.786-74.952c-33.235,0-60.55-25.755-63.082-58.352h126.163c-2.531,32.597-29.846,58.352-63.081,58.352z"/>
  </g>
</svg>
